<?xml version="1.0" encoding="UTF-8"?>
<!-- Generator: visioncortex VTracer -->
<svg id="svg" version="1.1" xmlns="http://www.w3.org/2000/svg" style="display: block; background: rgb(255, 255, 255);" viewBox="0 0 512 512"><path d="M0,0 L9,0 L15,4 L17,9 L17,54 L14,60 L9,63 L0,63 L-5,60 L-8,54 L-8,9 L-5,3 Z " transform="translate(267,149)" style="fill: #000000;"/><path d="M0,0 L512,0 L512,512 L0,512 Z M165,59 L156,61 L146,66 L137,75 L133,81 L130,92 L129,95 L129,268 L133,281 L136,287 L138,287 L140,292 L145,296 L153,301 L162,304 L199,305 L202,309 L203,312 L203,393 L202,397 L203,400 L203,414 L202,417 L202,432 L203,436 L203,451 L204,454 L208,452 L217,445 L228,434 L236,427 L243,421 L248,416 L252,411 L261,405 L273,393 L278,388 L287,381 L300,368 L314,357 L327,344 L335,337 L342,331 L347,326 L351,321 L359,314 L378,295 L380,290 L381,287 L381,245 L360,245 L360,273 L371,274 L373,275 L373,292 L371,293 L323,293 L323,275 L325,274 L336,273 L337,272 L337,246 L336,245 L261,244 L249,241 L239,234 L233,225 L230,216 L230,146 L228,146 L223,168 L212,211 L208,221 L205,224 L196,224 L190,220 L187,211 L173,156 L170,141 L173,138 L181,138 L184,143 L195,191 L199,208 L201,209 L206,184 L216,141 L218,138 L226,138 L228,140 L230,145 L232,141 L238,131 L247,124 L258,120 L273,119 L380,119 L381,118 L381,94 L378,85 L375,78 L366,68 L359,63 L351,60 L345,59 Z M262,136 L254,140 L246,149 L244,156 L244,205 L247,214 L252,220 L262,225 L266,226 L277,226 L288,222 L294,217 L298,209 L299,205 L299,157 L296,148 L289,140 L280,136 Z M316,137 L312,139 L312,142 L310,142 L310,220 L312,220 L312,223 L317,225 L328,221 L331,219 L331,217 L323,217 L323,198 L325,197 L326,187 L336,186 L337,190 L341,198 L356,198 L357,195 L350,180 L351,176 L363,150 L365,143 L363,139 L359,137 L355,138 L348,144 L336,170 L336,172 L325,172 L325,142 L324,139 L319,137 Z M327,201 L327,213 L341,213 L341,277 L327,277 L327,289 L369,289 L370,287 L369,277 L355,277 L355,213 L369,213 L370,203 L369,201 Z M359,217 L358,218 L358,224 L362,225 L366,221 L366,217 Z M176,335 Z M175,338 L176,340 Z M175,345 L176,347 Z M175,352 L176,355 Z M172,353 Z M175,359 L176,362 Z M172,360 Z M175,366 L176,369 Z M172,367 L173,369 Z M175,373 L176,377 Z M172,374 L173,376 Z M175,380 L176,384 Z M172,381 L173,383 Z M175,387 L176,391 Z M172,388 L173,390 Z M172,395 L173,398 Z M175,395 L176,398 Z M172,402 L173,405 Z M175,402 L176,406 Z M172,409 L173,412 Z M175,409 L176,413 Z M172,416 L173,420 Z M175,416 L176,420 Z M172,423 L173,427 Z M175,423 L176,427 Z M172,430 L173,434 Z M175,430 L176,434 Z M175,437 L175,442 L176,442 L176,437 Z M172,438 L173,441 Z M172,444 L172,449 L173,449 L173,444 Z M175,444 L175,449 L176,449 L176,444 Z M175,451 L175,456 L176,456 L176,451 Z M172,452 L173,456 Z M174,460 Z M176,460 L177,464 L178,461 Z M174,462 Z M178,464 L179,466 Z M175,465 Z M179,467 L179,469 L181,468 Z M177,468 Z M178,470 Z M181,470 L184,473 L183,470 Z M179,471 L181,473 L181,471 Z M181,473 Z M184,473 Z M183,474 L184,476 Z M185,474 L187,476 L187,474 Z M184,476 Z M188,476 Z M185,477 Z M190,477 L191,479 L193,478 Z M188,479 Z M193,479 Z M190,480 Z M197,480 L198,482 L202,481 Z M212,480 L209,482 L214,482 L215,480 Z M193,482 Z M201,483 Z M209,483 Z " transform="translate(0,0)" style="fill: #000000;"/></svg>